<svg width="1200" height="520" viewBox="0 0 1200 520" fill="none" xmlns="http://www.w3.org/2000/svg" role="img" aria-labelledby="title desc">
  <title id="title">PaulClawX cute technology agent lab</title>
  <desc id="desc">A lively tech illustration with cute agents, a human operator, workflow panels, stars, circuits, and a bright vision headline.</desc>
  <defs>
    <linearGradient id="bg" x1="0" y1="0" x2="1200" y2="520" gradientUnits="userSpaceOnUse">
      <stop offset="0" stop-color="#F9FBFF"/>
      <stop offset="0.45" stop-color="#ECF7FF"/>
      <stop offset="1" stop-color="#FFF3FA"/>
    </linearGradient>
    <linearGradient id="panel" x1="173" y1="86" x2="1031" y2="452" gradientUnits="userSpaceOnUse">
      <stop stop-color="#FFFFFF"/>
      <stop offset="1" stop-color="#F7FBFF"/>
    </linearGradient>
    <linearGradient id="bot" x1="823" y1="159" x2="1016" y2="371" gradientUnits="userSpaceOnUse">
      <stop stop-color="#79E4FF"/>
      <stop offset="1" stop-color="#FF8BC7"/>
    </linearGradient>
    <filter id="shadow" x="122" y="50" width="966" height="442" filterUnits="userSpaceOnUse" color-interpolation-filters="sRGB">
      <feDropShadow dx="0" dy="18" stdDeviation="22" flood-color="#7B91B8" flood-opacity="0.18"/>
    </filter>
  </defs>
  <rect width="1200" height="520" rx="34" fill="url(#bg)"/>
  <path d="M73 104H204M1017 76H1134M971 438H1138M67 420H250" stroke="#C8D8F5" stroke-width="5" stroke-linecap="round"/>
  <path d="M246 64V112M222 88H270M1097 172V220M1073 196H1121M136 302V350M112 326H160" stroke="#FFD25A" stroke-width="8" stroke-linecap="round"/>
  <circle cx="102" cy="164" r="12" fill="#FF8BC7"/>
  <circle cx="1112" cy="315" r="15" fill="#7DE7C9"/>
  <circle cx="333" cy="432" r="10" fill="#7AA7FF"/>
  <g filter="url(#shadow)">
    <rect x="150" y="72" width="900" height="370" rx="28" fill="url(#panel)" stroke="#DCE8FF" stroke-width="3"/>
  </g>
  <rect x="190" y="112" width="430" height="52" rx="18" fill="#101827"/>
  <text x="218" y="146" fill="white" font-family="Inter, Arial, sans-serif" font-size="24" font-weight="800">PaulClawX Agent Lab</text>
  <rect x="190" y="188" width="385" height="42" rx="15" fill="#EAF3FF"/>
  <circle cx="218" cy="209" r="9" fill="#65D9FF"/>
  <text x="240" y="216" fill="#24324A" font-family="Inter, Arial, sans-serif" font-size="17" font-weight="700">end-to-end workflows</text>
  <rect x="190" y="246" width="430" height="42" rx="15" fill="#FFF2F8"/>
  <circle cx="218" cy="267" r="9" fill="#FF8BC7"/>
  <text x="240" y="274" fill="#24324A" font-family="Inter, Arial, sans-serif" font-size="17" font-weight="700">observable runs + recoverable failures</text>
  <rect x="190" y="304" width="360" height="42" rx="15" fill="#EEFFF9"/>
  <circle cx="218" cy="325" r="9" fill="#42D8A6"/>
  <text x="240" y="332" fill="#24324A" font-family="Inter, Arial, sans-serif" font-size="17" font-weight="700">human collaboration first</text>
  <rect x="190" y="370" width="170" height="42" rx="21" fill="#FFE073"/>
  <text x="222" y="397" fill="#101827" font-family="Inter, Arial, sans-serif" font-size="17" font-weight="800">Build cute tech</text>
  <g transform="translate(682 128)">
    <path d="M81 242C118 266 202 268 240 239" stroke="#C8D8F5" stroke-width="14" stroke-linecap="round"/>
    <rect x="20" y="44" width="250" height="204" rx="36" fill="url(#bot)"/>
    <rect x="49" y="78" width="192" height="92" rx="30" fill="#101827"/>
    <circle cx="106" cy="124" r="16" fill="#7DE7C9"/>
    <circle cx="185" cy="124" r="16" fill="#7DE7C9"/>
    <path d="M122 150C137 162 158 162 173 150" stroke="#FFFFFF" stroke-width="9" stroke-linecap="round"/>
    <rect x="84" y="188" width="122" height="35" rx="17.5" fill="white" fill-opacity="0.86"/>
    <text x="113" y="212" fill="#24324A" font-family="Inter, Arial, sans-serif" font-size="16" font-weight="800">agent</text>
    <path d="M145 44V12" stroke="#101827" stroke-width="8" stroke-linecap="round"/>
    <circle cx="145" cy="8" r="8" fill="#FF5FA8"/>
    <path d="M14 121H-35C-53 121-66 108-66 90V84" stroke="#8EA6D9" stroke-width="10" stroke-linecap="round"/>
    <rect x="-94" y="28" width="70" height="58" rx="15" fill="#FFFFFF" stroke="#C8D8F5" stroke-width="5"/>
    <path d="M-75 54H-43M-75 70H-57" stroke="#7AA7FF" stroke-width="6" stroke-linecap="round"/>
    <path d="M276 122H332C350 122 364 136 364 154V168" stroke="#8EA6D9" stroke-width="10" stroke-linecap="round"/>
    <rect x="330" y="169" width="84" height="66" rx="16" fill="#FFFFFF" stroke="#C8D8F5" stroke-width="5"/>
    <path d="M353 197H391M353 216H378" stroke="#FF8BC7" stroke-width="6" stroke-linecap="round"/>
  </g>
  <path d="M610 240C646 220 666 217 692 222" stroke="#7AA7FF" stroke-width="5" stroke-linecap="round" stroke-dasharray="10 12"/>
  <path d="M604 319C651 344 684 344 719 324" stroke="#FF8BC7" stroke-width="5" stroke-linecap="round" stroke-dasharray="10 12"/>
</svg>
